<svg xmlns="http://www.w3.org/2000/svg" width="828" height="206" viewBox="0 0 828 206" fill="none"><g clip-path="url(#clip0_2220_47835)"><path d="M178.1 78.8598L158.27 57.3998L121.81 34.0498L12.7004 53.0998L56.4704 48.1498L8.44043 156.74L84.0104 92.2098V133.28L150.01 147.3L149.21 118.95L171.83 125.73L177.07 105.56L174.88 94.8298L178.1 78.8598Z" fill="white"></path><path d="M124.82 24.15L97.3896 0L113.16 21.99L124.82 24.15Z" fill="#81B65B"></path><path d="M130.25 29.5499L124.82 24.1499L125.84 41.1199L132.75 44.5899L130.25 29.5499Z" fill="#81B65B"></path><path d="M87.7298 17.2698L53.0898 10.8398L78.7898 21.5398L87.7298 17.2698Z" fill="#81B65B"></path><path d="M112.67 35.6398L125.84 41.1198L121.81 34.0498L112.67 35.6398Z" fill="#8CBC6A"></path><path d="M121.81 34.0502L125.84 41.1202L124.82 24.1502L113.16 21.9902L121.81 34.0502Z" fill="#5AA846"></path><path d="M74.1502 27.7202L12.7002 53.1002L89.1602 39.7502L74.1502 27.7202Z" fill="#98C179"></path><path d="M95.8304 18.77L83.9404 23.68L112.67 35.64L121.81 34.05L95.8304 18.77Z" fill="#81B65B"></path><path d="M94.9196 63.4401L103.14 45.1401L70.5596 69.6301L94.9196 63.4401Z" fill="#81B65B"></path><path d="M40.0401 71.3501L2.58008 86.9101L34.8201 78.7101L40.0401 71.3501Z" fill="#81B65B"></path><path d="M56.4701 48.1499L2.58008 86.9099L40.0401 71.3499L56.4701 48.1499Z" fill="#D2E1C1"></path><path d="M34.82 78.71L0 124.06L26.37 103.72L34.82 78.71Z" fill="#D2E1C1"></path><path d="M34.8203 78.7101L70.5603 69.6301L103.14 45.1401L40.0403 71.3501L34.8203 78.7101Z" fill="#69AC50"></path><path d="M103.14 45.1401L56.47 48.1501L40.04 71.3501L103.14 45.1401Z" fill="#98C179"></path><path d="M26.3704 103.72L8.44043 156.74L70.5604 69.6299L26.3704 103.72Z" fill="#D2E1C1"></path><path d="M34.8201 78.7099L26.3701 103.72L70.5601 69.6299L34.8201 78.7099Z" fill="#98C179"></path><path d="M53.7695 107.84L119.14 74.0602L87.7295 71.2002L53.7695 107.84Z" fill="#AFCD94"></path><path d="M89.4698 124.06L89.4898 124.05L101.01 104.62L119.14 74.0601L84.0098 92.2101V133.28L89.4798 124.06H89.4698Z" fill="#8CBC6A"></path><path d="M119.14 74.0599L94.9205 63.4399L87.7305 71.1999L119.14 74.0599Z" fill="#A3C787"></path><path d="M132.15 118.03L107.98 113.34L150.54 166.52L132.15 118.03Z" fill="#D2E1C1"></path><path d="M149.08 114.22L149.28 121.36L161.27 123.68L164.04 121.79L149.08 114.22Z" fill="#C6DAB2"></path><path d="M107.98 113.34L132.15 118.03L126.33 102.71L107.98 113.34Z" fill="#98C179"></path><path d="M171.83 125.73L174.67 114.8L164.04 121.79L171.83 125.73Z" fill="#AFCD94"></path><path d="M157.37 126.35L171.83 125.73L161.27 123.68L157.37 126.35Z" fill="#AFCD94"></path><path d="M161.27 123.68L171.83 125.73L164.04 121.79L161.27 123.68Z" fill="#A3C787"></path><path d="M132.15 118.03L150.01 147.3L149.28 121.36L132.15 118.03Z" fill="#C6DAB2"></path><path d="M126.33 102.71L132.15 118.03L149.28 121.36L149.08 114.22L126.33 102.71Z" fill="#A3C787"></path><path d="M146.77 62.8299L128.22 58.8999L143.4 70.3699L146.77 62.8299Z" fill="#81B65B"></path><path d="M142.14 104.62L162.73 103.67L165.64 97.5898L142.14 104.62Z" fill="#C6DAB2"></path><path d="M153.8 195.84L150.54 166.52L133.33 157.92L153.8 195.84Z" fill="#E9F0E1"></path><path d="M76.04 108.28L73.79 152.12L80.77 145.24L76.04 108.28Z" fill="#C6DAB2"></path><path d="M82.7102 160.4L72.9102 169.31L131.12 205.35L82.7102 160.4Z" fill="#AFCD94"></path><path d="M73.7902 152.12L72.9102 169.31L82.7102 160.4L73.7902 152.12Z" fill="#98C179"></path><path d="M95.8301 18.77L113.16 21.99L97.3901 0L95.8301 18.77Z" fill="#A3C787"></path><path d="M113.16 21.99L95.8301 18.77L121.81 34.05L113.16 21.99Z" fill="#8CBC6A"></path><path d="M53.0898 10.8398L71.0498 25.2398L78.7898 21.5398L53.0898 10.8398Z" fill="#69AC50"></path><path d="M112.67 35.6402L83.9404 23.6802L74.1504 27.7202L89.1604 39.7502L112.67 35.6402Z" fill="#69AC50"></path><path d="M87.7296 71.1999L94.9196 63.4399L70.5596 69.6299L87.7296 71.1999Z" fill="#98C179"></path><path d="M70.5604 69.6299L8.44043 156.74L53.7704 107.84L70.5604 69.6299Z" fill="#98C179"></path><path d="M70.5595 69.6299L53.7695 107.84L87.7295 71.1999L70.5595 69.6299Z" fill="#8CBC6A"></path><path d="M173.19 103.18L177.07 105.56L174.88 94.8301L173.19 103.18Z" fill="#D2E1C1"></path><path d="M59.98 131.21L27.46 177.63L66.1 149.25L59.98 131.21Z" fill="#DDE8D1"></path><path d="M108.86 145.69L153.8 195.84L133.33 157.92L108.86 145.69Z" fill="#C6DAB2"></path><path d="M158.27 57.3998L127.14 10.8398L130.25 29.5498L158.27 57.3998Z" fill="#81B65B"></path><path d="M132.75 44.5898L158.27 57.3998L130.25 29.5498L132.75 44.5898Z" fill="#5AA846"></path><path d="M172.28 83.7598L165.64 97.5898L174.88 94.8298L176.23 88.1298L172.28 83.7598Z" fill="#AFCD94"></path><path d="M165.64 97.5901L162.73 103.67L173.19 103.18L174.88 94.8301L165.64 97.5901Z" fill="#81B65B"></path><path d="M163.66 74.23L172.28 83.76L175.09 77.89L163.66 74.23Z" fill="#8CBC6A"></path><path d="M178.1 78.8601L175.09 77.8901L172.28 83.7601L176.23 88.1301L178.1 78.8601Z" fill="#81B65B"></path><path d="M66.0996 149.25L72.9096 169.31L74.2496 143.27L66.0996 149.25Z" fill="#D2E1C1"></path><path d="M76.0405 108.28L59.9805 131.21L66.1005 149.25L74.2505 143.27L76.0405 108.28Z" fill="#98C179"></path><path d="M107.98 113.34L101.01 104.62L89.4902 124.05L107.98 113.34Z" fill="#A3C787"></path><path d="M84.0098 133.28L108.86 145.69L89.4798 124.06L84.0098 133.28Z" fill="#AFCD94"></path><path d="M107.98 113.34L89.4905 124.05L89.4805 124.06L130.42 152.52L150.54 166.52L107.98 113.34Z" fill="#AFCD94"></path><path d="M133.33 157.92L150.54 166.52L130.42 152.52L133.33 157.92Z" fill="#8CBC6A"></path><path d="M130.42 152.52L89.4805 124.06L108.86 145.69L133.33 157.92L130.42 152.52Z" fill="#8CBC6A"></path><path d="M82.7095 160.4L131.12 205.35L80.7695 145.24L82.7095 160.4Z" fill="#DDE8D1"></path><path d="M80.77 145.24L73.79 152.12L82.71 160.4L80.77 145.24Z" fill="#A3C787"></path><path d="M74.1502 27.7202L71.0502 25.2402L12.7002 53.1002L74.1502 27.7202Z" fill="#C6DAB2"></path><path d="M95.83 18.77L90.42 17.77L87.73 17.27L78.79 21.54L83.94 23.68L95.83 18.77Z" fill="#8CBC6A"></path><path d="M83.9398 23.68L78.7898 21.54L71.0498 25.24L74.1498 27.72L83.9398 23.68Z" fill="#81B65B"></path><path d="M87.7305 17.27L95.8305 18.77L97.3905 0L87.7305 17.27Z" fill="#C6DAB2"></path><path d="M8.44043 156.74L84.0104 92.21L53.7704 107.84L8.44043 156.74Z" fill="#AFCD94"></path><path d="M127.14 10.8398L124.82 24.1498L130.25 29.5498L127.14 10.8398Z" fill="#AFCD94"></path><path d="M167.59 176.11L150.01 147.3L150.54 166.52L167.59 176.11Z" fill="#AFCD94"></path><path d="M150.54 166.52L150.01 147.3L132.15 118.03L150.54 166.52Z" fill="#A3C787"></path><path d="M219.48 146.48V49.6899H257.95C265.73 49.6899 272.25 52.0499 277.53 56.7699C282.95 61.3499 285.58 67.3199 285.58 74.4099C285.58 83.7099 281 91.0699 273.22 93.8499C285.58 96.0699 292.66 105.52 292.66 117.87C292.66 126.06 289.88 133.01 284.19 138.42C278.64 143.84 271.69 146.47 263.22 146.47H219.48V146.48ZM240.45 88.2999H254.48C260.59 88.2999 264.9 83.9899 264.9 78.0199C264.9 72.3299 260.59 68.0199 254.62 68.0199H240.46V88.2999H240.45ZM240.45 128.01H258.92C266.14 128.01 271.42 122.87 271.42 116.21C271.42 109.54 266.14 104.82 258.78 104.82H240.45V128.01Z" fill="#414042"></path><path d="M298.641 146.48V76.49H319.331V86.07C322.521 78.99 330.021 74.96 339.601 74.96C340.991 74.96 342.791 75.1 345.021 75.38V94.82C342.941 94.4 340.581 94.13 338.081 94.13C326.281 94.13 319.331 100.8 319.331 112.32V146.48H298.641Z" fill="#414042"></path><path d="M355.991 85.8C362.661 78.72 370.991 75.25 380.851 75.25C391.401 75.25 399.601 79.55 401.681 85.66V76.5H422.371V121.91C422.371 127.47 423.761 129.69 427.511 129.69C428.481 129.69 429.731 129.55 430.981 129.41V146.63C428.761 147.32 425.701 147.74 421.681 147.74C417.101 147.74 413.211 146.91 410.291 145.24C407.101 143.16 405.011 140.66 404.041 137.74C399.461 144.54 391.821 147.88 380.851 147.88C370.991 147.88 362.661 144.41 355.991 137.47C349.461 130.39 346.131 121.78 346.131 111.5C346.131 101.35 349.471 92.74 355.991 85.8ZM397.521 123.98C401.131 120.51 402.941 116.34 402.941 111.48C402.941 106.62 401.131 102.45 397.521 99.12C394.051 95.65 389.741 93.98 384.611 93.98C379.611 93.98 375.441 95.65 371.971 99.12C368.501 102.45 366.831 106.62 366.831 111.48C366.831 116.34 368.501 120.51 371.971 123.98C375.441 127.31 379.611 128.98 384.611 128.98C389.741 128.98 394.041 127.32 397.521 123.98Z" fill="#414042"></path><path d="M456.931 146.48L426.931 76.4902H447.901L466.231 120.93L484.421 76.4902H505.391L475.391 146.48H456.931Z" fill="#414042"></path><path d="M500.28 111.35C500.28 100.38 503.89 91.4899 510.97 84.8299C518.05 78.0299 527.22 74.6899 538.19 74.6899C548.88 74.6899 557.49 78.1599 564.16 84.9699C570.83 91.7699 574.16 100.11 574.16 110.24C574.16 112.6 574.02 114.82 573.88 116.91H520.97C521.39 125.24 528.61 130.66 539.58 130.66C546.11 130.66 551.8 128.44 556.66 123.86L568.74 135.39C560.55 143.86 550.41 148.17 538.61 148.17C527.08 148.17 517.92 144.84 510.84 138.31C503.76 131.64 500.29 122.9 500.29 111.92V111.35H500.28ZM553.32 103.43C553.32 96.8999 546.52 91.7699 538.18 91.7699C529.15 91.7699 521.79 96.9099 521.24 103.43H553.32Z" fill="#414042"></path><path d="M667.891 60.5201L661.091 68.0201C653.731 61.2201 644.841 57.8801 634.431 57.8801C623.041 57.8801 613.601 61.7701 606.101 69.4101C598.601 77.0501 594.851 86.6301 594.851 98.1601C594.851 109.69 598.601 119.41 606.101 127.05C613.601 134.69 623.041 138.44 634.431 138.44C644.711 138.44 653.591 135.25 660.951 128.72V103.72H631.371V93.7201H671.781V132.46C661.921 143.15 649.421 148.43 634.421 148.43C620.391 148.43 608.451 143.71 598.591 134.13C588.871 124.55 584.011 112.47 584.011 98.1601C584.011 83.8601 588.871 71.9101 598.591 62.3301C608.451 52.7501 620.391 47.8901 634.421 47.8901C647.621 47.8901 658.731 52.0501 667.891 60.5201Z" fill="#68AD45"></path><path d="M680.521 111.76C680.521 100.51 683.851 91.4899 690.381 84.6799C696.911 77.8699 705.381 74.3999 715.511 74.3999C725.091 74.3999 732.731 77.7299 738.701 84.5399C744.671 91.2099 747.731 99.3999 747.731 109.26C747.731 110.79 747.731 112.31 747.591 113.7H690.791C691.351 129.11 701.211 138.97 715.791 138.97C725.371 138.97 731.071 135.92 737.311 129.25L744.111 135.92C736.751 144.11 727.311 148.28 715.781 148.28C705.361 148.28 696.761 144.95 690.231 138.42C683.701 131.89 680.511 123.14 680.511 112.31V111.76H680.521ZM736.761 104.68C736.761 98.9899 734.681 94.1299 730.511 90.0999C726.341 86.0699 721.341 83.9899 715.511 83.9899C709.121 83.9899 703.571 86.0699 698.981 90.0999C694.401 94.1299 691.901 98.9899 691.481 104.68H736.761Z" fill="#68AD45"></path><path d="M756.181 146.48V76.4904H766.461V88.2904C770.211 80.5104 778.131 75.3804 788.541 75.3804C804.231 75.3804 814.091 85.8004 814.091 101.76V130.65C814.091 136.34 814.921 138.01 818.951 138.01C819.641 138.01 820.481 137.87 821.591 137.73V146.2C820.481 146.62 818.951 146.89 817.151 146.89C811.731 146.89 803.821 145.36 803.821 131.34V103.98C803.821 92.3104 797.021 84.9604 785.911 84.9604C774.381 84.9604 766.471 93.0104 766.471 104.68V146.48H756.181Z" fill="#68AD45"></path></g><defs><clipPath id="clip0_2220_47835"><rect width="827.39" height="205.35" fill="white"></rect></clipPath></defs></svg>